{"title":"Transporter 2 (THiZZoRDiEuBZs)","uid":8534479,"size":444592150,"categoryP":"video","categoryS":"movies_dvdr","magnet":"?xt=urn:btih:0799d896cbf6107ba476a51575d810c6a6c1dbaf&amp;dn=Transporter+2+%28THiZZoRDiEuBZs%29&amp;tr=udp%3A%2F%2Ftracker.openbittorrent.com%3A80&amp;tr=udp%3A%2F%2Fopen.demonii.com%3A1337&amp;tr=udp%3A%2F%2Ftracker.coppersurfer.tk%3A6969&amp;tr=udp%3A%2F%2Fexodus.desync.com%3A6969","seeders":1,"leechers":0,"uploader":null,"files":1,"time":1370229873,"description":"Format : MPEG-4\nFormat profile : Base Media\nCodec ID : isom\nFile size : 424 MiB\nDuration : 1h 27mn\nOverall bit rate : 676 Kbps\nMovie name : TRANSPORTER_2\nGenre : Action &amp; Adventure\nWriting application : Lavf52.13.0\n\nVideo\nID : 1\nFormat : MPEG-4 Visual\nFormat profile : Simple@L1\nFormat settings, BVOP : No\nFormat settings, QPel : No\nFormat settings, GMC : No warppoints\nFormat settings, Matrix : Default (H.263)\nCodec ID : 20\nDuration : 1h 27mn\nBit rate mode : Variable\nBit rate : 544 Kbps\nWidth : 640 pixels\nHeight : 480 pixels\nDisplay aspect ratio : 4:3\nFrame rate mode : Constant\nFrame rate : 23.976 fps\nColor space : YUV\nChroma subsampling : 4:2:0\nBit depth : 8 bits\nScan type : Progressive\nBits/(Pixel*Frame) : 0.074\nStream size : 341 MiB (80%)\nWriting library : Lavc51.55.0\n\nAudio\nID : 2\nFormat : AAC\nFormat/Info : Advanced Audio Codec\nFormat version : Version 4\nFormat profile : LC\nFormat settings, SBR : No\nCodec ID : 40\nDuration : 1h 27mn\nBit rate mode : Variable\nBit rate : 128 Kbps\nChannel(s) : 2 channels\nChannel positions : Front: L R\nSampling rate : 48.0 KHz\nStream size : 80.2 MiB (19%)","torrent":{"xt":"urn:btih:0799d896cbf6107ba476a51575d810c6a6c1dbaf","amp;dn":"Transporter+2+%28THiZZoRDiEuBZs%29","amp;tr":["udp%3A%2F%2Ftracker.openbittorrent.com%3A80","udp%3A%2F%2Fopen.demonii.com%3A1337","udp%3A%2F%2Ftracker.coppersurfer.tk%3A6969","udp%3A%2F%2Fexodus.desync.com%3A6969"],"infoHash":"0799d896cbf6107ba476a51575d810c6a6c1dbaf","infoHashBuffer":{"type":"Buffer","data":[7,153,216,150,203,246,16,123,164,118,165,21,117,216,16,198,166,193,219,175]},"announce":[],"urlList":[]}}